<svg xmlns="http://www.w3.org/2000/svg" xmlns:xlink="http://www.w3.org/1999/xlink" width="1351" zoomAndPan="magnify" viewBox="0 0 1013.25 836.999997" height="1116" preserveAspectRatio="xMidYMid meet" version="1.0"><defs><g/><clipPath id="0dbe404e7e"><path d="M 352.191406 180.515625 L 660.214844 180.515625 L 660.214844 483.289062 L 352.191406 483.289062 Z M 352.191406 180.515625 " clip-rule="nonzero"/></clipPath><clipPath id="41c89621bd"><path d="M 533.25 215.296875 C 537.09375 215.296875 540.199219 218.402344 540.199219 222.246094 C 540.199219 226.089844 537.09375 229.195312 533.25 229.195312 C 529.40625 229.195312 526.300781 226.089844 526.300781 222.246094 C 526.300781 218.402344 529.40625 215.296875 533.25 215.296875 Z M 646.851562 328.28125 C 646.851562 331.753906 644.292969 334.605469 640.953125 335.125 C 639.148438 360.835938 630.425781 384.667969 616.601562 404.757812 C 619.234375 407.289062 620.890625 410.820312 620.890625 414.769531 C 620.890625 422.441406 614.664062 428.664062 606.992188 428.664062 C 603.902344 428.664062 601.066406 427.617188 598.757812 425.914062 C 578.535156 445.625 552.441406 459.3125 523.359375 464.042969 C 523.359375 464.175781 523.40625 464.3125 523.40625 464.445312 C 523.40625 474.835938 514.976562 483.25 504.601562 483.25 C 494.441406 483.25 486.222656 475.175781 485.855469 465.125 C 443.867188 460.703125 407.335938 437.757812 384.597656 404.609375 C 383.210938 405.367188 381.65625 405.824219 379.972656 405.824219 C 374.546875 405.824219 370.140625 401.417969 370.140625 395.992188 C 370.140625 392.519531 371.957031 389.472656 374.679688 387.726562 C 365.277344 368.878906 359.96875 347.648438 359.96875 325.191406 C 359.96875 317.78125 360.621094 310.464844 361.773438 303.265625 C 356.230469 301.429688 352.191406 296.257812 352.191406 290.105469 C 352.191406 282.433594 358.417969 276.210938 366.089844 276.210938 C 367.007812 276.210938 367.90625 276.3125 368.78125 276.476562 C 381.40625 242.546875 406.878906 213.921875 440.570312 197.96875 C 440.644531 197.941406 440.71875 197.910156 440.808594 197.867188 C 440.527344 196.773438 440.335938 195.632812 440.335938 194.453125 C 440.335938 186.777344 446.558594 180.554688 454.230469 180.554688 C 459.820312 180.554688 464.625 183.878906 466.8125 188.640625 C 466.886719 188.625 466.960938 188.597656 467.019531 188.582031 L 467.523438 190.636719 C 467.875 191.847656 468.113281 193.105469 468.113281 194.4375 C 468.113281 197.066406 467.34375 199.507812 466.074219 201.59375 L 486.339844 216.96875 C 487.554688 215.917969 489.121094 215.269531 490.851562 215.269531 C 494.695312 215.269531 497.800781 218.371094 497.800781 222.214844 C 497.800781 224.433594 496.75 226.386719 495.125 227.65625 L 511.488281 261.128906 C 512.421875 260.832031 513.394531 260.625 514.429688 260.625 C 517.371094 260.625 519.976562 261.941406 521.777344 263.980469 L 545.566406 248.679688 C 545.285156 247.910156 545.109375 247.097656 545.109375 246.242188 C 545.109375 242.398438 548.210938 239.292969 552.054688 239.292969 C 555.898438 239.292969 559.003906 242.398438 559.003906 246.242188 C 559.003906 247.703125 558.546875 249.050781 557.777344 250.171875 L 587.980469 282.0625 C 589.578125 280.953125 591.5 280.289062 593.597656 280.289062 C 599.023438 280.289062 603.429688 284.695312 603.429688 290.121094 C 603.429688 295.042969 599.792969 299.09375 595.0625 299.804688 L 595.0625 356.796875 C 596.878906 357.066406 598.507812 357.832031 599.851562 358.957031 L 633.070312 329.328125 C 633.027344 328.988281 632.96875 328.648438 632.96875 328.292969 C 632.96875 324.449219 636.074219 321.34375 639.917969 321.34375 C 643.746094 321.332031 646.851562 324.4375 646.851562 328.28125 Z M 586.296875 296.625 L 551.996094 319.113281 C 552.011719 319.277344 552.042969 319.4375 552.042969 319.617188 C 552.042969 320.089844 551.996094 320.546875 551.90625 320.992188 L 587.921875 358.453125 C 589.148438 357.582031 590.582031 357.003906 592.136719 356.785156 L 592.136719 299.773438 C 589.8125 299.433594 587.789062 298.296875 586.296875 296.625 Z M 583.765625 366.453125 C 583.765625 364.191406 584.550781 362.152344 585.835938 360.480469 L 550.605469 323.816406 C 550.046875 324.539062 549.367188 325.144531 548.566406 325.605469 L 537.066406 370.859375 C 538.5 371.464844 539.726562 372.410156 540.714844 373.578125 L 583.796875 366.570312 C 583.78125 366.527344 583.765625 366.496094 583.765625 366.453125 Z M 461.742188 278.085938 C 459.257812 281.855469 455 284.339844 450.152344 284.339844 C 447.121094 284.339844 444.355469 283.351562 442.0625 281.707031 L 416.605469 310.300781 C 418.824219 312.742188 420.214844 315.949219 420.242188 319.496094 L 445.566406 321.9375 C 447.105469 313.109375 454.777344 306.367188 464.046875 306.367188 C 468.4375 306.367188 472.414062 307.9375 475.625 310.449219 L 491.324219 293.386719 Z M 493.363281 291.1875 L 506.800781 276.578125 C 505.738281 275.246094 505.011719 273.667969 504.746094 271.90625 L 463.898438 271.90625 C 463.765625 273.164062 463.515625 274.375 463.070312 275.5 Z M 504.613281 343.996094 C 504.613281 343.492188 504.671875 342.988281 504.777344 342.515625 L 481.550781 331.960938 C 478.832031 339 472.046875 343.996094 464.046875 343.996094 C 461.992188 343.996094 460.042969 343.582031 458.191406 342.976562 L 446.054688 371.980469 C 447.460938 372.988281 448.582031 374.347656 449.292969 375.945312 L 504.644531 344.304688 C 504.628906 344.1875 504.613281 344.097656 504.613281 343.996094 Z M 414.253906 331.042969 L 436.105469 371.09375 C 437.390625 370.472656 438.8125 370.105469 440.335938 370.105469 C 441.429688 370.105469 442.464844 370.328125 443.453125 370.652344 L 455.503906 341.851562 C 449.441406 338.730469 445.242188 332.476562 445.242188 325.191406 C 445.242188 325.070312 445.273438 324.953125 445.273438 324.835938 L 419.976562 322.394531 C 419.253906 325.972656 417.152344 329.035156 414.253906 331.042969 Z M 431.316406 383.824219 L 389.699219 394.898438 C 389.742188 395.253906 389.804688 395.59375 389.804688 395.960938 L 454.792969 407.921875 C 456.125 404.0625 459.746094 401.285156 464.046875 401.285156 C 465.644531 401.285156 467.121094 401.699219 468.453125 402.363281 L 506.460938 348.683594 C 506.046875 348.238281 505.707031 347.734375 505.425781 347.1875 L 450.046875 378.855469 C 450.089844 379.210938 450.152344 379.566406 450.152344 379.921875 C 450.152344 385.347656 445.746094 389.753906 440.320312 389.753906 C 436.296875 389.753906 432.824219 387.3125 431.316406 383.824219 Z M 511.5625 337.046875 C 513.410156 337.046875 515.082031 337.785156 516.324219 338.96875 L 539.207031 323.269531 C 538.542969 322.203125 538.144531 320.960938 538.144531 319.617188 C 538.144531 318.980469 538.261719 318.390625 538.410156 317.796875 L 494 294.792969 L 477.78125 312.414062 C 480.902344 315.773438 482.851562 320.238281 482.851562 325.191406 C 482.851562 326.550781 482.691406 327.878906 482.425781 329.152344 L 506.003906 339.871094 C 507.261719 338.171875 509.269531 337.046875 511.5625 337.046875 Z M 516.308594 349.035156 L 529.464844 370.84375 C 530.632812 370.355469 531.90625 370.089844 533.234375 370.089844 C 533.574219 370.089844 533.886719 370.148438 534.210938 370.191406 L 545.316406 326.535156 C 545.242188 326.535156 545.179688 326.550781 545.109375 326.550781 C 543.6875 326.550781 542.371094 326.121094 541.265625 325.382812 L 517.980469 341.335938 C 518.320312 342.148438 518.496094 343.035156 518.496094 343.964844 C 518.496094 345.992188 517.652344 347.78125 516.308594 349.035156 Z M 546.984375 312.964844 C 548.757812 313.464844 550.222656 314.632812 551.109375 316.199219 L 584.667969 294.1875 C 584.09375 292.929688 583.753906 291.554688 583.753906 290.089844 C 583.753906 287.816406 584.566406 285.730469 585.867188 284.074219 L 555.632812 252.15625 C 554.789062 252.65625 553.84375 252.984375 552.824219 253.101562 Z M 508.917969 278.589844 L 496.039062 292.574219 L 539.753906 315.226562 C 540.820312 313.9375 542.328125 313.035156 544.074219 312.785156 L 549.925781 252.835938 C 548.863281 252.496094 547.886719 251.933594 547.117188 251.148438 L 523.375 266.4375 C 523.9375 267.664062 524.261719 269.023438 524.261719 270.457031 C 524.261719 275.882812 519.855469 280.289062 514.429688 280.289062 C 512.390625 280.273438 510.5 279.652344 508.917969 278.589844 Z M 460.160156 260.847656 C 462.230469 263.007812 463.558594 265.84375 463.898438 268.996094 L 504.761719 268.996094 C 505.175781 266.257812 506.683594 263.878906 508.871094 262.371094 L 492.535156 228.957031 C 492.003906 229.089844 491.441406 229.179688 490.867188 229.179688 C 489.683594 229.179688 488.589844 228.855469 487.613281 228.335938 Z M 452.339844 256.78125 C 454.394531 257.109375 456.300781 257.832031 457.941406 258.957031 L 485.367188 226.472656 C 484.464844 225.304688 483.886719 223.84375 483.886719 222.246094 C 483.886719 221.195312 484.140625 220.207031 484.554688 219.320312 L 464.300781 203.957031 C 461.917969 206.484375 458.621094 208.097656 454.910156 208.289062 Z M 377.8125 282.714844 C 378.375 283.601562 378.804688 284.546875 379.160156 285.550781 L 436.429688 272.15625 C 436.355469 271.597656 436.253906 271.035156 436.253906 270.441406 C 436.253906 263.019531 442.09375 257.003906 449.425781 256.621094 L 452.027344 208.113281 C 449.855469 207.773438 447.859375 206.945312 446.160156 205.71875 Z M 371.558594 277.332031 C 373.230469 278.058594 374.738281 279.09375 375.996094 280.378906 L 443.984375 203.78125 C 443.113281 202.835938 442.390625 201.753906 441.8125 200.601562 C 408.875 216.199219 383.949219 244.171875 371.558594 277.332031 Z M 378.9375 386.25 L 366.679688 303.929688 C 366.472656 303.945312 366.296875 303.988281 366.089844 303.988281 C 365.585938 303.988281 365.113281 303.898438 364.640625 303.839844 C 363.53125 310.835938 362.910156 317.960938 362.910156 325.160156 C 362.910156 347.203125 368.144531 368.035156 377.382812 386.53125 C 377.871094 386.398438 378.40625 386.308594 378.9375 386.25 Z M 400.949219 332.417969 C 395.96875 330.304688 392.480469 325.367188 392.480469 319.617188 C 392.480469 311.941406 398.703125 305.71875 406.375 305.71875 C 409.390625 305.71875 412.171875 306.710938 414.460938 308.351562 L 439.90625 279.757812 C 438.664062 278.382812 437.703125 276.769531 437.082031 274.996094 L 379.808594 288.390625 C 379.882812 288.953125 379.988281 289.515625 379.988281 290.105469 C 379.988281 296.566406 375.550781 301.964844 369.5625 303.515625 L 381.910156 386.351562 C 382.75 386.515625 383.535156 386.824219 384.273438 387.179688 Z M 386.785156 388.910156 C 387.71875 389.796875 388.472656 390.875 388.988281 392.074219 L 430.605469 381 C 430.5625 380.644531 430.503906 380.289062 430.503906 379.921875 C 430.503906 377.066406 431.730469 374.523438 433.679688 372.734375 L 411.710938 332.449219 C 410.070312 333.128906 408.269531 333.511719 406.375 333.511719 C 405.472656 333.511719 404.601562 333.410156 403.742188 333.246094 Z M 486.859375 458.472656 L 387.128906 403.089844 C 409.375 435.421875 445.035156 457.820312 486.03125 462.167969 C 486.179688 460.894531 486.460938 459.652344 486.859375 458.472656 Z M 492.136719 450.429688 L 468.75 419.675781 C 467.34375 420.445312 465.761719 420.917969 464.046875 420.917969 C 458.621094 420.917969 454.214844 416.511719 454.214844 411.085938 C 454.214844 410.984375 454.246094 410.878906 454.246094 410.761719 L 389.328125 398.816406 C 389.136719 399.421875 388.902344 400.011719 388.605469 400.558594 L 487.996094 455.75 C 489.0625 453.738281 490.453125 451.9375 492.136719 450.429688 Z M 509.714844 350.664062 C 509.417969 350.574219 509.109375 350.5 508.828125 350.382812 L 470.847656 404.035156 C 472.710938 405.824219 473.878906 408.320312 473.878906 411.101562 C 473.878906 413.761719 472.8125 416.171875 471.085938 417.945312 L 494.429688 448.640625 C 497.265625 446.804688 500.621094 445.726562 504.230469 445.652344 Z M 509.757812 446.40625 L 528.832031 388.644531 C 525.636719 387.019531 523.417969 383.734375 523.417969 379.90625 C 523.417969 376.859375 524.824219 374.183594 526.996094 372.382812 L 513.808594 350.515625 C 513.425781 350.648438 513.042969 350.75 512.628906 350.8125 L 507.140625 445.84375 C 508.03125 445.976562 508.902344 446.171875 509.757812 446.40625 Z M 587.746094 374.304688 C 586.132812 373.089844 584.921875 371.40625 584.285156 369.4375 L 542.359375 376.269531 C 542.816406 377.40625 543.082031 378.636719 543.082031 379.921875 C 543.082031 385.347656 538.675781 389.753906 533.25 389.753906 C 532.6875 389.753906 532.140625 389.679688 531.59375 389.589844 L 512.507812 447.398438 C 514.3125 448.226562 515.9375 449.335938 517.371094 450.664062 Z M 596.628906 423.90625 C 596.539062 423.800781 596.453125 423.683594 596.363281 423.578125 L 522.207031 457.953125 C 522.578125 458.972656 522.886719 460.023438 523.09375 461.117188 C 551.433594 456.460938 576.878906 443.109375 596.628906 423.90625 Z M 601.90625 401.847656 L 594.765625 376.152344 C 594.367188 376.195312 593.984375 376.269531 593.582031 376.269531 C 592.460938 376.269531 591.394531 376.046875 590.390625 375.691406 L 519.308594 452.824219 C 519.929688 453.605469 520.460938 454.417969 520.949219 455.308594 L 594.707031 421.125 C 593.703125 419.203125 593.082031 417.058594 593.082031 414.738281 C 593.109375 408.871094 596.761719 403.886719 601.90625 401.847656 Z M 638.039062 334.933594 C 636.457031 334.488281 635.082031 333.527344 634.179688 332.199219 L 601.804688 361.070312 C 602.808594 362.609375 603.414062 364.457031 603.414062 366.4375 C 603.414062 370.429688 601.019531 373.859375 597.589844 375.398438 L 604.714844 401.078125 C 605.457031 400.960938 606.210938 400.839844 606.992188 400.839844 C 609.683594 400.839844 612.167969 401.640625 614.296875 402.957031 C 627.777344 383.335938 636.28125 360.050781 638.039062 334.933594 Z M 653.265625 270.441406 C 649.421875 270.441406 646.316406 273.546875 646.316406 277.390625 C 646.316406 281.234375 649.421875 284.339844 653.265625 284.339844 C 657.109375 284.339844 660.214844 281.234375 660.214844 277.390625 C 660.214844 273.5625 657.09375 270.441406 653.265625 270.441406 Z M 529.023438 194.378906 C 534.640625 194.378906 534.65625 185.640625 529.023438 185.640625 C 523.40625 185.640625 523.40625 194.378906 529.023438 194.378906 Z M 601.90625 244.851562 C 607.523438 244.851562 607.539062 236.113281 601.90625 236.113281 C 596.289062 236.113281 596.273438 244.851562 601.90625 244.851562 Z M 579.539062 215.296875 C 585.15625 215.296875 585.171875 206.558594 579.539062 206.558594 C 573.921875 206.558594 573.90625 215.296875 579.539062 215.296875 Z M 579.539062 215.296875 " clip-rule="nonzero"/></clipPath><linearGradient x1="1820.417371" gradientTransform="matrix(0.147839, 0, 0, 0.147844, 352.19277, 180.554074)" y1="2211.287369" x2="319.071406" gradientUnits="userSpaceOnUse" y2="-198.766008" id="eb5bb553a6"><stop stop-opacity="1" stop-color="rgb(7.516479%, 41.668701%, 71.578979%)" offset="0"/><stop stop-opacity="1" stop-color="rgb(7.397461%, 41.7099%, 71.612549%)" offset="0.03125"/><stop stop-opacity="1" stop-color="rgb(7.16095%, 41.793823%, 71.679688%)" offset="0.0625"/><stop stop-opacity="1" stop-color="rgb(6.924438%, 41.876221%, 71.7453%)" offset="0.09375"/><stop stop-opacity="1" stop-color="rgb(6.687927%, 41.958618%, 71.812439%)" offset="0.125"/><stop stop-opacity="1" stop-color="rgb(6.44989%, 42.042542%, 71.879578%)" offset="0.15625"/><stop stop-opacity="1" stop-color="rgb(6.213379%, 42.124939%, 71.946716%)" offset="0.1875"/><stop stop-opacity="1" stop-color="rgb(5.976868%, 42.207336%, 72.012329%)" offset="0.21875"/><stop stop-opacity="1" stop-color="rgb(5.740356%, 42.289734%, 72.079468%)" offset="0.25"/><stop stop-opacity="1" stop-color="rgb(5.503845%, 42.373657%, 72.146606%)" offset="0.28125"/><stop stop-opacity="1" stop-color="rgb(5.267334%, 42.456055%, 72.213745%)" offset="0.3125"/><stop stop-opacity="1" stop-color="rgb(5.030823%, 42.538452%, 72.279358%)" offset="0.34375"/><stop stop-opacity="1" stop-color="rgb(4.794312%, 42.62085%, 72.346497%)" offset="0.375"/><stop stop-opacity="1" stop-color="rgb(4.556274%, 42.704773%, 72.413635%)" offset="0.387981"/><stop stop-opacity="1" stop-color="rgb(4.438782%, 42.745972%, 72.447205%)" offset="0.40625"/><stop stop-opacity="1" stop-color="rgb(4.319763%, 42.78717%, 72.480774%)" offset="0.4375"/><stop stop-opacity="1" stop-color="rgb(4.083252%, 42.869568%, 72.546387%)" offset="0.46875"/><stop stop-opacity="1" stop-color="rgb(3.846741%, 42.953491%, 72.613525%)" offset="0.5"/><stop stop-opacity="1" stop-color="rgb(3.610229%, 43.035889%, 72.680664%)" offset="0.53125"/><stop stop-opacity="1" stop-color="rgb(3.373718%, 43.118286%, 72.747803%)" offset="0.5625"/><stop stop-opacity="1" stop-color="rgb(3.137207%, 43.200684%, 72.813416%)" offset="0.59375"/><stop stop-opacity="1" stop-color="rgb(2.900696%, 43.284607%, 72.880554%)" offset="0.612019"/><stop stop-opacity="1" stop-color="rgb(2.783203%, 43.325806%, 72.914124%)" offset="0.625"/><stop stop-opacity="1" stop-color="rgb(2.664185%, 43.367004%, 72.947693%)" offset="0.65625"/><stop stop-opacity="1" stop-color="rgb(2.426147%, 43.449402%, 73.014832%)" offset="0.6875"/><stop stop-opacity="1" stop-color="rgb(2.189636%, 43.531799%, 73.080444%)" offset="0.71875"/><stop stop-opacity="1" stop-color="rgb(1.953125%, 43.615723%, 73.147583%)" offset="0.75"/><stop stop-opacity="1" stop-color="rgb(1.716614%, 43.69812%, 73.214722%)" offset="0.78125"/><stop stop-opacity="1" stop-color="rgb(1.480103%, 43.780518%, 73.28186%)" offset="0.8125"/><stop stop-opacity="1" stop-color="rgb(1.243591%, 43.862915%, 73.347473%)" offset="0.84375"/><stop stop-opacity="1" stop-color="rgb(1.00708%, 43.946838%, 73.414612%)" offset="0.875"/><stop stop-opacity="1" stop-color="rgb(0.770569%, 44.029236%, 73.48175%)" offset="0.90625"/><stop stop-opacity="1" stop-color="rgb(0.532532%, 44.111633%, 73.548889%)" offset="0.9375"/><stop stop-opacity="1" stop-color="rgb(0.296021%, 44.195557%, 73.614502%)" offset="0.96875"/><stop stop-opacity="1" stop-color="rgb(0.088501%, 44.267273%, 73.674011%)" offset="1"/></linearGradient></defs><g clip-path="url(#0dbe404e7e)"><g clip-path="url(#41c89621bd)"><path fill="url(#eb5bb553a6)" d="M 352.191406 180.554688 L 352.191406 483.25 L 660.214844 483.25 L 660.214844 180.554688 Z M 352.191406 180.554688 " fill-rule="nonzero"/></g></g><g fill="#ffffff" fill-opacity="1"><g transform="translate(280.411474, 578.333748)"><g><path d="M 27.832031 1.25 C 40.769531 1.25 51.472656 -5.261719 51.472656 -18.734375 C 51.472656 -32.738281 39.519531 -35.683594 30.0625 -38.09375 C 23.371094 -39.699219 18.019531 -41.035156 18.019531 -45.40625 C 18.019531 -49.511719 22.390625 -51.382812 26.761719 -51.382812 C 31.847656 -51.382812 36.308594 -48.886719 36.308594 -43.445312 L 49.601562 -43.445312 C 49.601562 -55.933594 41.480469 -63.605469 27.121094 -63.605469 C 13.292969 -63.605469 4.460938 -56.824219 4.460938 -44.871094 C 4.460938 -31.402344 15.878906 -28.636719 25.335938 -26.316406 C 32.113281 -24.800781 37.824219 -23.460938 37.824219 -18.554688 C 37.824219 -13.917969 32.828125 -11.242188 27.742188 -11.242188 C 22.214844 -11.242188 17.21875 -14.183594 17.21875 -20.160156 L 3.566406 -20.160156 C 3.566406 -6.78125 13.46875 1.25 27.832031 1.25 Z M 27.832031 1.25 "/></g></g></g><g fill="#ffffff" fill-opacity="1"><g transform="translate(335.629437, 578.333748)"><g><path d="M 83.589844 0 L 73.953125 -62.445312 L 60.394531 -62.445312 L 43.445312 -24.085938 L 26.496094 -62.445312 L 13.023438 -62.445312 L 3.210938 0 L 16.949219 0 L 23.105469 -40.679688 L 41.75 -0.0898438 L 45.050781 -0.0898438 L 63.695312 -40.679688 L 69.851562 0 Z M 83.589844 0 "/></g></g></g><g fill="#ffffff" fill-opacity="1"><g transform="translate(422.604427, 578.333748)"><g><path d="M 46.65625 -62.445312 L 46.65625 -24.355469 L 19.269531 -62.445312 L 7.136719 -62.445312 L 7.136719 0 L 20.339844 0 L 20.339844 -38.984375 L 48.617188 0 L 59.949219 0 L 59.949219 -62.445312 Z M 46.65625 -62.445312 "/></g></g></g><g fill="#ffffff" fill-opacity="1"><g transform="translate(489.686681, 578.333748)"><g/></g></g><g fill="#ffffff" fill-opacity="1"><g transform="translate(511.006712, 578.333748)"><g><path d="M 50.136719 -62.445312 L 1.875 -62.445312 L 1.875 -49.867188 L 19.269531 -49.867188 L 19.269531 0 L 32.738281 0 L 32.738281 -49.867188 L 50.136719 -49.867188 Z M 50.136719 -62.445312 "/></g></g></g><g fill="#ffffff" fill-opacity="1"><g transform="translate(563.102488, 578.333748)"><g><path d="M 52.988281 -24.175781 C 52.988281 -38.09375 42.820312 -49.511719 28.011719 -49.511719 C 13.738281 -49.511719 3.03125 -38.539062 3.03125 -24.085938 C 3.03125 -9.632812 13.828125 1.425781 28.011719 1.425781 C 39.25 1.425781 48.441406 -5.261719 51.917969 -15.789062 L 38.269531 -15.789062 C 36.308594 -12.3125 32.5625 -10.167969 28.011719 -10.167969 C 21.675781 -10.167969 17.394531 -13.828125 16.234375 -20.429688 L 52.722656 -20.429688 C 52.902344 -21.675781 52.988281 -22.925781 52.988281 -24.175781 Z M 28.011719 -38.359375 C 33.898438 -38.359375 38.09375 -35.148438 39.964844 -29.261719 L 16.59375 -29.261719 C 18.109375 -34.96875 22.214844 -38.359375 28.011719 -38.359375 Z M 28.011719 -38.359375 "/></g></g></g><g fill="#ffffff" fill-opacity="1"><g transform="translate(619.123291, 578.333748)"><g><path d="M 28.636719 1.425781 C 41.214844 1.425781 51.117188 -6.78125 53.347656 -18.914062 L 40.234375 -18.914062 C 38.003906 -13.738281 33.898438 -10.882812 28.636719 -10.882812 C 21.675781 -10.882812 16.234375 -16.683594 16.234375 -24.085938 C 16.234375 -31.578125 21.589844 -37.289062 28.636719 -37.289062 C 33.808594 -37.289062 38.179688 -34.433594 40.234375 -29.707031 L 53.167969 -29.707031 C 50.847656 -41.570312 41.214844 -49.511719 28.726562 -49.511719 C 14.09375 -49.511719 3.03125 -38.628906 3.03125 -24.175781 C 3.03125 -9.722656 14.09375 1.425781 28.636719 1.425781 Z M 28.636719 1.425781 "/></g></g></g><g fill="#ffffff" fill-opacity="1"><g transform="translate(674.876472, 578.333748)"><g><path d="M 33.808594 -49.242188 C 28.011719 -49.242188 22.925781 -47.101562 19.269531 -43.621094 L 19.269531 -65.480469 L 6.246094 -65.480469 L 6.246094 0 L 19.269531 0 L 19.269531 -25.246094 C 19.269531 -33.097656 23.550781 -37.824219 30.0625 -37.824219 C 35.863281 -37.824219 38.449219 -34.257812 38.449219 -27.03125 L 38.449219 0 L 51.472656 0 L 51.472656 -29.261719 C 51.472656 -41.480469 44.695312 -49.242188 33.808594 -49.242188 Z M 33.808594 -49.242188 "/></g></g></g><g fill="#ffffff" fill-opacity="1"><g transform="translate(358.234395, 643.931478)"><g><path d="M 15.058594 0.601562 C 21.554688 0.601562 26.660156 -3.753906 27.863281 -10.25 L 22.117188 -10.25 C 21.179688 -6.945312 18.511719 -4.84375 15.058594 -4.84375 C 10.589844 -4.84375 7.246094 -8.375 7.246094 -13.105469 C 7.246094 -17.835938 10.589844 -21.402344 15.058594 -21.402344 C 18.363281 -21.402344 20.992188 -19.449219 22.078125 -16.371094 L 27.75 -16.371094 C 26.546875 -22.605469 21.441406 -26.847656 15.058594 -26.847656 C 7.324219 -26.847656 1.464844 -20.914062 1.464844 -13.105469 C 1.464844 -5.332031 7.324219 0.601562 15.058594 0.601562 Z M 15.058594 0.601562 "/></g></g></g><g fill="#ffffff" fill-opacity="1"><g transform="translate(403.099136, 643.931478)"><g><path d="M 15.472656 0.601562 C 23.46875 0.601562 29.4375 -5.292969 29.4375 -13.144531 C 29.4375 -20.953125 23.46875 -26.847656 15.472656 -26.847656 C 7.433594 -26.847656 1.425781 -20.914062 1.425781 -13.144531 C 1.425781 -5.332031 7.433594 0.601562 15.472656 0.601562 Z M 15.472656 -4.769531 C 10.777344 -4.769531 7.210938 -8.410156 7.210938 -13.144531 C 7.210938 -17.875 10.777344 -21.480469 15.472656 -21.480469 C 20.164062 -21.480469 23.65625 -17.910156 23.65625 -13.144531 C 23.65625 -8.375 20.164062 -4.769531 15.472656 -4.769531 Z M 15.472656 -4.769531 "/></g></g></g><g fill="#ffffff" fill-opacity="1"><g transform="translate(449.915737, 643.931478)"><g><path d="M 35.183594 0 L 31.128906 -26.285156 L 25.421875 -26.285156 L 18.285156 -10.136719 L 11.152344 -26.285156 L 5.480469 -26.285156 L 1.351562 0 L 7.132812 0 L 9.726562 -17.121094 L 17.574219 -0.0390625 L 18.964844 -0.0390625 L 26.8125 -17.121094 L 29.402344 0 Z M 35.183594 0 "/></g></g></g><g fill="#ffffff" fill-opacity="1"><g transform="translate(502.437791, 643.931478)"><g><path d="M 13.105469 -26.285156 L 3.003906 -26.285156 L 3.003906 0 L 8.675781 0 L 8.675781 -8.1875 L 13.105469 -8.1875 C 18.398438 -8.1875 22.378906 -12.054688 22.378906 -17.234375 C 22.378906 -22.417969 18.363281 -26.285156 13.105469 -26.285156 Z M 12.84375 -13.441406 L 8.675781 -13.441406 L 8.675781 -20.992188 L 12.84375 -20.992188 C 15.09375 -20.992188 16.636719 -19.414062 16.636719 -17.234375 C 16.636719 -15.058594 15.09375 -13.441406 12.84375 -13.441406 Z M 12.84375 -13.441406 "/></g></g></g><g fill="#ffffff" fill-opacity="1"><g transform="translate(541.709703, 643.931478)"><g><path d="M 20.425781 0 L 26.625 0 L 15.996094 -26.285156 L 10.625 -26.285156 L 0.300781 0 L 6.347656 0 L 8.148438 -4.957031 L 18.585938 -4.957031 Z M 13.367188 -19.339844 L 16.824219 -9.914062 L 9.914062 -9.914062 Z M 13.367188 -19.339844 "/></g></g></g><g fill="#ffffff" fill-opacity="1"><g transform="translate(584.585065, 643.931478)"><g><path d="M 19.640625 -26.285156 L 19.640625 -10.25 L 8.109375 -26.285156 L 3.003906 -26.285156 L 3.003906 0 L 8.5625 0 L 8.5625 -16.410156 L 20.464844 0 L 25.234375 0 L 25.234375 -26.285156 Z M 19.640625 -26.285156 "/></g></g></g><g fill="#ffffff" fill-opacity="1"><g transform="translate(628.73663, 643.931478)"><g><path d="M 24.894531 -26.285156 L 18.8125 -26.285156 L 12.730469 -15.734375 L 6.683594 -26.285156 L 0.636719 -26.285156 L 9.800781 -10.625 L 9.800781 0 L 15.621094 0 L 15.621094 -10.589844 Z M 24.894531 -26.285156 "/></g></g></g></svg>